<svg width="16" height="17" viewBox="0 0 16 17" fill="none" xmlns="http://www.w3.org/2000/svg">
<g id="24/ outlined / suggested / circle / check" clip-path="url(#clip0_2632_3272)">
<path id="Vector" d="M14.6666 8.28371V8.89704C14.6658 10.3347 14.2003 11.7335 13.3395 12.8849C12.4787 14.0364 11.2688 14.8787 9.89016 15.2863C8.51154 15.6939 7.03809 15.645 5.68957 15.1468C4.34104 14.6486 3.18969 13.7278 2.40723 12.5218C1.62476 11.3157 1.25311 9.88909 1.3477 8.45459C1.44229 7.02009 1.99806 5.6546 2.93211 4.56176C3.86615 3.46892 5.12844 2.7073 6.53071 2.39048C7.93298 2.07365 9.4001 2.2186 10.7133 2.80371" stroke="#18B92E" stroke-linecap="round" stroke-linejoin="round"/>
<path id="Vector_2" d="M14.6666 3.56372L7.99991 10.2371L5.99991 8.23705" stroke="#18B92E" stroke-linecap="round" stroke-linejoin="round"/>
</g>
<defs>
<clipPath id="clip0_2632_3272">
<rect width="16" height="16" fill="white" transform="translate(-9.15527e-05 0.897095)"/>
</clipPath>
</defs>
</svg>
