<svg width="25" height="25" viewBox="0 0 25 25" fill="none" xmlns="http://www.w3.org/2000/svg">
<g id="Email Icon 1" clip-path="url(#clip0_398_381)">
<path id="Ellipse 2" d="M12.5 25C19.4036 25 25 19.4036 25 12.5C25 5.59644 19.4036 0 12.5 0C5.59644 0 0 5.59644 0 12.5C0 19.4036 5.59644 25 12.5 25Z" fill="#EFF8FF"/>
<g id="Layer 2">
<path id="email" d="M17.75 6H7.25C6.65326 6 6.08097 6.23705 5.65901 6.65901C5.23705 7.08097 5 7.65326 5 8.25V15.75C5 16.3467 5.23705 16.919 5.65901 17.341C6.08097 17.7629 6.65326 18 7.25 18H17.75C18.3467 18 18.919 17.7629 19.341 17.341C19.7629 16.919 20 16.3467 20 15.75V8.25C20 7.65326 19.7629 7.08097 19.341 6.65901C18.919 6.23705 18.3467 6 17.75 6ZM17.25 7.5L12.5 11.063L7.753 7.5H17.25ZM17.75 16.5H7.25C7.05109 16.5 6.86032 16.421 6.71967 16.2803C6.57902 16.1397 6.5 15.9489 6.5 15.75V8.438L12.05 12.6C12.1798 12.6974 12.3377 12.75 12.5 12.75C12.6623 12.75 12.8202 12.6974 12.95 12.6L18.5 8.438V15.75C18.5 15.9489 18.421 16.1397 18.2803 16.2803C18.1397 16.421 17.9489 16.5 17.75 16.5Z" fill="#1068B2"/>
</g>
</g>
<defs>
<clipPath id="clip0_398_381">
<rect width="25" height="25" fill="white"/>
</clipPath>
</defs>
</svg>
