<svg width="25" height="26" viewBox="0 0 25 26" fill="none" xmlns="http://www.w3.org/2000/svg">
<g clip-path="url(#clip0_398_397)">
<path d="M12.5 25.856C19.4036 25.856 25 20.2595 25 13.356C25 6.4524 19.4036 0.855957 12.5 0.855957C5.59644 0.855957 0 6.4524 0 13.356C0 20.2595 5.59644 25.856 12.5 25.856Z" fill="#EFF8FF"/>
<path d="M6.6084 12.8472H9.44043V16.5483C9.06608 16.672 8.67708 16.7713 8.27344 16.8462C7.86979 16.9178 7.41243 16.9536 6.90137 16.9536C6.19173 16.9536 5.58952 16.8136 5.09473 16.5337C4.59993 16.2537 4.22396 15.8403 3.9668 15.2935C3.70964 14.7466 3.58105 14.0744 3.58105 13.2769C3.58105 12.5282 3.72428 11.8804 4.01074 11.3335C4.30046 10.7866 4.72201 10.3634 5.27539 10.064C5.83203 9.76449 6.51074 9.61475 7.31152 9.61475C7.68913 9.61475 8.06185 9.65544 8.42969 9.73682C8.79753 9.8182 9.13118 9.92399 9.43066 10.0542L8.92773 11.2651C8.70964 11.1545 8.46061 11.0617 8.18066 10.9868C7.90072 10.9119 7.60775 10.8745 7.30176 10.8745C6.8623 10.8745 6.47982 10.9754 6.1543 11.1772C5.83203 11.3791 5.58138 11.6623 5.40234 12.0269C5.22656 12.3882 5.13867 12.8146 5.13867 13.3062C5.13867 13.7716 5.20215 14.1851 5.3291 14.5464C5.45605 14.9045 5.65625 15.186 5.92969 15.3911C6.20312 15.5929 6.55957 15.6938 6.99902 15.6938C7.21387 15.6938 7.39453 15.6841 7.54102 15.6646C7.69076 15.6418 7.83073 15.619 7.96094 15.5962V14.1069H6.6084V12.8472ZM15.3584 14.8735C15.3584 15.2967 15.2559 15.6646 15.0508 15.9771C14.8457 16.2896 14.5462 16.5304 14.1523 16.6997C13.7617 16.869 13.2865 16.9536 12.7266 16.9536C12.4792 16.9536 12.2367 16.9373 11.999 16.9048C11.7646 16.8722 11.5384 16.825 11.3203 16.7632C11.1055 16.6981 10.9004 16.6183 10.7051 16.5239V15.1177C11.0436 15.2674 11.3952 15.4025 11.7598 15.5229C12.1243 15.6434 12.4857 15.7036 12.8438 15.7036C13.0911 15.7036 13.2897 15.6711 13.4395 15.606C13.5924 15.5409 13.7031 15.4513 13.7715 15.3374C13.8398 15.2235 13.874 15.0933 13.874 14.9468C13.874 14.7677 13.8138 14.6147 13.6934 14.4878C13.5729 14.3608 13.4069 14.242 13.1953 14.1313C12.987 14.0207 12.751 13.9019 12.4873 13.7749C12.3213 13.6968 12.1406 13.6024 11.9453 13.4917C11.75 13.3778 11.5645 13.2394 11.3887 13.0767C11.2129 12.9139 11.068 12.717 10.9541 12.4858C10.8434 12.2515 10.7881 11.9715 10.7881 11.646C10.7881 11.2196 10.8857 10.855 11.0811 10.5522C11.2764 10.2495 11.5547 10.0184 11.916 9.85889C12.2806 9.69613 12.7103 9.61475 13.2051 9.61475C13.5762 9.61475 13.9294 9.65869 14.2646 9.74658C14.6032 9.83122 14.9564 9.95492 15.3242 10.1177L14.8359 11.2944C14.5072 11.161 14.2126 11.0584 13.9521 10.9868C13.6917 10.9119 13.4264 10.8745 13.1562 10.8745C12.9674 10.8745 12.8063 10.9054 12.6729 10.9673C12.5394 11.0259 12.4385 11.1105 12.3701 11.2212C12.3018 11.3286 12.2676 11.4539 12.2676 11.5972C12.2676 11.7664 12.3164 11.9097 12.4141 12.0269C12.515 12.1408 12.6647 12.2515 12.8633 12.3589C13.0651 12.4663 13.3158 12.5916 13.6152 12.7349C13.9798 12.9074 14.2907 13.0881 14.5479 13.2769C14.8083 13.4624 15.0085 13.6821 15.1484 13.936C15.2884 14.1867 15.3584 14.4992 15.3584 14.8735ZM19.4062 16.856H17.8926V10.9771H15.9541V9.71729H21.3447V10.9771H19.4062V16.856Z" fill="#1068B2"/>
</g>
<defs>
<clipPath id="clip0_398_397">
<rect width="25" height="25" fill="white" transform="translate(0 0.855957)"/>
</clipPath>
</defs>
</svg>
