<svg width="24" height="25" viewBox="0 0 24 25" fill="none" xmlns="http://www.w3.org/2000/svg">
<g id="24/ outlined / other / phone / phone">
<path id="Vector" d="M22 17.8171V20.8171C22.0011 21.0956 21.9441 21.3712 21.8325 21.6264C21.7209 21.8816 21.5573 22.1107 21.3521 22.2989C21.1468 22.4872 20.9046 22.6306 20.6407 22.7198C20.3769 22.809 20.0974 22.8421 19.82 22.8171C16.7428 22.4827 13.787 21.4312 11.19 19.7471C8.77382 18.2117 6.72533 16.1632 5.18999 13.7471C3.49997 11.1383 2.44824 8.16806 2.11999 5.07707C2.095 4.80054 2.12787 4.52183 2.21649 4.25869C2.30512 3.99556 2.44756 3.75376 2.63476 3.54869C2.82196 3.34362 3.0498 3.17978 3.30379 3.06759C3.55777 2.9554 3.83233 2.89733 4.10999 2.89707H7.10999C7.5953 2.89229 8.06579 3.06415 8.43376 3.3806C8.80173 3.69706 9.04207 4.13652 9.10999 4.61707C9.23662 5.57714 9.47144 6.5198 9.80999 7.42707C9.94454 7.78499 9.97366 8.17398 9.8939 8.54795C9.81415 8.92192 9.62886 9.26518 9.35999 9.53707L8.08999 10.8071C9.51355 13.3106 11.5864 15.3835 14.09 16.8071L15.36 15.5371C15.6319 15.2682 15.9751 15.0829 16.3491 15.0032C16.7231 14.9234 17.1121 14.9525 17.47 15.0871C18.3773 15.4256 19.3199 15.6604 20.28 15.7871C20.7658 15.8556 21.2094 16.1003 21.5265 16.4746C21.8437 16.8489 22.0122 17.3266 22 17.8171Z" stroke="#1068B2" stroke-width="2" stroke-linecap="round" stroke-linejoin="round"/>
</g>
</svg>
