<svg width="26" height="27" viewBox="0 0 26 27" fill="none" xmlns="http://www.w3.org/2000/svg">
<g id="Name Icon 1" clip-path="url(#clip0_398_374)">
<path id="Ellipse 1" d="M13 26.7119C20.1797 26.7119 26 20.8916 26 13.7119C26 6.53221 20.1797 0.711914 13 0.711914C5.8203 0.711914 0 6.53221 0 13.7119C0 20.8916 5.8203 26.7119 13 26.7119Z" fill="#EFF8FF"/>
<path id="Path 7" d="M14.65 13.4619C15.0289 12.9885 15.2375 12.4013 15.242 11.7949C15.249 11.4305 15.1832 11.0683 15.0485 10.7296C14.9139 10.3909 14.7131 10.0825 14.4578 9.82227C14.2026 9.56208 13.898 9.3554 13.5619 9.21431C13.2258 9.07322 12.865 9.00055 12.5005 9.00055C12.136 9.00055 11.7752 9.07322 11.4391 9.21431C11.103 9.3554 10.7984 9.56208 10.5432 9.82227C10.2879 10.0825 10.0871 10.3909 9.95245 10.7296C9.81781 11.0683 9.75204 11.4305 9.759 11.7949C9.76325 12.4012 9.97143 12.9884 10.35 13.4619C9.60708 13.9139 9.02419 14.587 8.683 15.3869C8.63606 15.4883 8.60999 15.598 8.60632 15.7096C8.60265 15.8212 8.62146 15.9325 8.66164 16.0367C8.70183 16.1409 8.76255 16.2359 8.84021 16.3162C8.91787 16.3965 9.01087 16.4603 9.11369 16.5039C9.21652 16.5475 9.32706 16.57 9.43874 16.57C9.55042 16.57 9.66097 16.5476 9.76381 16.504C9.86664 16.4604 9.95967 16.3966 10.0374 16.3164C10.115 16.2361 10.1758 16.1411 10.216 16.0369C10.4075 15.589 10.7257 15.2069 11.1315 14.9374C11.5372 14.6679 12.0129 14.5228 12.5 14.5199C12.9885 14.5212 13.4658 14.6656 13.8732 14.9352C14.2805 15.2048 14.5999 15.5878 14.792 16.0369C14.8558 16.1876 14.9626 16.3161 15.099 16.4064C15.2354 16.4967 15.3954 16.5449 15.559 16.5449C15.6705 16.5427 15.7807 16.52 15.884 16.4779C15.9847 16.4352 16.0761 16.3731 16.1528 16.2952C16.2295 16.2172 16.2901 16.1249 16.3312 16.0235C16.3722 15.9221 16.3929 15.8136 16.392 15.7042C16.3911 15.5948 16.3687 15.4866 16.326 15.3859C15.9823 14.5851 15.3961 13.9122 14.65 13.4619ZM12.5 12.8539C12.287 12.8539 12.0789 12.7907 11.9019 12.6722C11.725 12.5537 11.5872 12.3853 11.5061 12.1884C11.425 11.9915 11.4041 11.775 11.4463 11.5662C11.4884 11.3575 11.5916 11.166 11.7427 11.0159C11.8939 10.8659 12.0862 10.7642 12.2952 10.7236C12.5043 10.683 12.7207 10.7055 12.917 10.7881C13.1132 10.8707 13.2806 11.0097 13.3977 11.1875C13.5149 11.3653 13.5766 11.574 13.575 11.7869C13.5729 12.0706 13.4587 12.342 13.2573 12.5419C13.056 12.7418 12.7837 12.8539 12.5 12.8539ZM17.5 5.71191H7.5C6.83696 5.71191 6.20107 5.97531 5.73223 6.44415C5.26339 6.91299 5 7.54887 5 8.21191V17.3789C5 17.7072 5.06466 18.0323 5.1903 18.3356C5.31594 18.6389 5.50009 18.9145 5.73223 19.1467C5.96438 19.3788 6.23998 19.563 6.54329 19.6886C6.84661 19.8142 7.1717 19.8789 7.5 19.8789H9.658L11.908 22.1369C12.0575 22.2842 12.2567 22.3701 12.4663 22.3779C12.676 22.3857 12.881 22.3147 13.041 22.1789L15.724 19.8789H17.5C18.163 19.8789 18.7989 19.6155 19.2678 19.1467C19.7366 18.6778 20 18.042 20 17.3789V8.21191C20 7.54887 19.7366 6.91299 19.2678 6.44415C18.7989 5.97531 18.163 5.71191 17.5 5.71191ZM18.333 17.3789C18.333 17.4883 18.3115 17.5966 18.2696 17.6977C18.2277 17.7988 18.1664 17.8906 18.089 17.9679C18.0117 18.0453 17.9198 18.1066 17.8188 18.1485C17.7177 18.1904 17.6094 18.2119 17.5 18.2119H15.417C15.2183 18.2118 15.026 18.2827 14.875 18.4119L12.542 20.4119L10.592 18.4539C10.5141 18.3766 10.4217 18.3154 10.3202 18.2738C10.2186 18.2323 10.1098 18.2113 10 18.2119H7.5C7.27907 18.2119 7.0672 18.1242 6.91098 17.9679C6.75476 17.8117 6.667 17.5998 6.667 17.3789V8.21191C6.667 8.10252 6.68855 7.9942 6.73041 7.89314C6.77227 7.79207 6.83363 7.70025 6.91098 7.62289C6.98833 7.54554 7.08016 7.48418 7.18122 7.44232C7.28229 7.40046 7.39061 7.37891 7.5 7.37891H17.5C17.6094 7.37891 17.7177 7.40046 17.8188 7.44232C17.9198 7.48418 18.0117 7.54554 18.089 7.62289C18.1664 7.70025 18.2277 7.79207 18.2696 7.89314C18.3115 7.9942 18.333 8.10252 18.333 8.21191V17.3789Z" fill="#1068B2"/>
</g>
<defs>
<clipPath id="clip0_398_374">
<rect width="26" height="26" fill="white" transform="translate(0 0.855957)"/>
</clipPath>
</defs>
</svg>
