<svg width="25" height="26" viewBox="0 0 25 26" fill="none" xmlns="http://www.w3.org/2000/svg">
<g id="Password Icon 1" clip-path="url(#clip0_398_404)">
<g id="Password Icon">
<path id="Ellipse 4" d="M12.5 25.856C19.4036 25.856 25 20.2595 25 13.356C25 6.4524 19.4036 0.855957 12.5 0.855957C5.59644 0.855957 0 6.4524 0 13.356C0 20.2595 5.59644 25.856 12.5 25.856Z" fill="#EFF8FF"/>
<path id="Path 9" d="M11.821 5.85596C10.9694 5.85859 10.1534 6.19806 9.55127 6.80023C8.9491 7.4024 8.60963 8.21836 8.607 9.06996V11.213C8.39488 11.209 8.18415 11.2479 7.9874 11.3273C7.79065 11.4066 7.61193 11.5249 7.46191 11.6749C7.3119 11.8249 7.19367 12.0036 7.11431 12.2004C7.03494 12.3971 6.99606 12.6078 7 12.82V16.034C7.00186 17.2201 7.44018 18.364 8.23139 19.2476C9.02259 20.1313 10.1113 20.6928 11.29 20.8252C12.4687 20.9576 13.6549 20.6515 14.6224 19.9654C15.5899 19.2793 16.2711 18.2611 16.536 17.105H16.643C16.9247 17.1128 17.2047 17.0594 17.4637 16.9484C17.7227 16.8374 17.9545 16.6714 18.143 16.462C18.3442 16.267 18.5046 16.034 18.615 15.7765C18.7254 15.519 18.7835 15.2421 18.786 14.962C18.7886 14.681 18.7328 14.4026 18.6221 14.1444C18.5114 13.8862 18.3483 13.6538 18.143 13.462C17.741 13.0676 17.2058 12.8382 16.643 12.819C16.6469 12.6068 16.6081 12.3961 16.5287 12.1994C16.4493 12.0026 16.3311 11.8239 16.1811 11.6739C16.0311 11.5239 15.8523 11.4056 15.6556 11.3263C15.4588 11.2469 15.2481 11.208 15.036 11.212V9.06996C15.0334 8.21819 14.6938 7.40208 14.0914 6.79988C13.489 6.19768 12.6728 5.85833 11.821 5.85596ZM17.392 14.213C17.4935 14.3097 17.5744 14.4261 17.6296 14.555C17.6848 14.6839 17.7133 14.8227 17.7133 14.963C17.7133 15.1032 17.6848 15.242 17.6296 15.3709C17.5744 15.4998 17.4935 15.6162 17.392 15.713C17.2431 15.8503 17.0615 15.947 16.8645 15.9939C16.6675 16.0409 16.4618 16.0364 16.267 15.981C16.098 15.9181 15.9476 15.8136 15.8298 15.677C15.7121 15.5405 15.6307 15.3765 15.5933 15.2001C15.5559 15.0237 15.5636 14.8407 15.6159 14.6682C15.6681 14.4956 15.7631 14.339 15.892 14.213C16.0137 14.0933 16.1601 14.0018 16.321 13.945C16.422 13.9012 16.5322 13.8827 16.642 13.891C16.7823 13.8922 16.9209 13.9212 17.0498 13.9765C17.1788 14.0318 17.2944 14.1122 17.392 14.213ZM15.571 12.82V13.141C15.4186 13.2348 15.275 13.3423 15.142 13.462C14.8635 13.7166 14.6753 14.055 14.606 14.426H9.679C9.60747 14.4216 9.53582 14.4324 9.46881 14.4578C9.40179 14.4832 9.34093 14.5225 9.29025 14.5732C9.23958 14.6239 9.20025 14.6847 9.17486 14.7518C9.14948 14.8188 9.13861 14.8904 9.143 14.962V16.033C9.13987 16.1052 9.15141 16.1774 9.17691 16.2451C9.20242 16.3128 9.24136 16.3746 9.29139 16.4268C9.34142 16.4791 9.40152 16.5207 9.46804 16.5491C9.53457 16.5775 9.60616 16.5921 9.6785 16.5921C9.75083 16.5921 9.82242 16.5775 9.88895 16.5491C9.95548 16.5207 10.0156 16.4791 10.0656 16.4268C10.1156 16.3746 10.1546 16.3128 10.1801 16.2451C10.2056 16.1774 10.2171 16.1052 10.214 16.033V15.497H11.286V16.033C11.2829 16.1052 11.2944 16.1774 11.3199 16.2451C11.3454 16.3128 11.3844 16.3746 11.4344 16.4268C11.4844 16.4791 11.5445 16.5207 11.611 16.5491C11.6776 16.5775 11.7492 16.5921 11.8215 16.5921C11.8938 16.5921 11.9654 16.5775 12.032 16.5491C12.0985 16.5207 12.1586 16.4791 12.2086 16.4268C12.2586 16.3746 12.2976 16.3128 12.3231 16.2451C12.3486 16.1774 12.3601 16.1052 12.357 16.033V15.497H14.557C14.7128 16.0133 15.0326 16.4647 15.468 16.783C15.3074 17.6301 14.8549 18.3941 14.1894 18.9422C13.5238 19.4903 12.6872 19.7878 11.825 19.783C10.8271 19.7859 9.86688 19.402 9.146 18.712C8.80011 18.3578 8.52748 17.9388 8.3437 17.4791C8.15992 17.0194 8.06861 16.528 8.075 16.033V12.82C8.07061 12.7484 8.08148 12.6768 8.10686 12.6098C8.13225 12.5427 8.17158 12.4819 8.22225 12.4312C8.27293 12.3805 8.33379 12.3412 8.4008 12.3158C8.46782 12.2904 8.53947 12.2796 8.611 12.284H15.04C15.1111 12.2803 15.1822 12.2917 15.2486 12.3174C15.315 12.3431 15.3753 12.3826 15.4254 12.4332C15.4755 12.4838 15.5144 12.5444 15.5395 12.611C15.5646 12.6777 15.5753 12.7489 15.571 12.82ZM9.679 11.213V9.06996C9.679 8.5016 9.90478 7.95652 10.3067 7.55463C10.7086 7.15274 11.2536 6.92696 11.822 6.92696C12.3904 6.92696 12.9354 7.15274 13.3373 7.55463C13.7392 7.95652 13.965 8.5016 13.965 9.06996V11.213H9.679Z" fill="#1068B2"/>
</g>
</g>
<defs>
<clipPath id="clip0_398_404">
<rect width="25" height="25" fill="white" transform="translate(0 0.855957)"/>
</clipPath>
</defs>
</svg>
