<svg width="25" height="26" viewBox="0 0 25 26" fill="none" xmlns="http://www.w3.org/2000/svg">
<g id="Mobile Icon 1" clip-path="url(#clip0_398_389)">
<path id="Ellipse 3" d="M12.5 25.856C19.4036 25.856 25 20.2595 25 13.356C25 6.4524 19.4036 0.855957 12.5 0.855957C5.59644 0.855957 0 6.4524 0 13.356C0 20.2595 5.59644 25.856 12.5 25.856Z" fill="#EFF8FF"/>
<path id="Path 8" d="M15.25 5.85596H9.25C8.65326 5.85596 8.08097 6.09301 7.65901 6.51497C7.23705 6.93692 7 7.50922 7 8.10596V18.606C7 19.2027 7.23705 19.775 7.65901 20.1969C8.08097 20.6189 8.65326 20.856 9.25 20.856H15.25C15.8467 20.856 16.419 20.6189 16.841 20.1969C17.2629 19.775 17.5 19.2027 17.5 18.606V8.10596C17.5 7.50922 17.2629 6.93692 16.841 6.51497C16.419 6.09301 15.8467 5.85596 15.25 5.85596ZM16 18.606C16 18.8049 15.921 18.9956 15.7803 19.1363C15.6397 19.2769 15.4489 19.356 15.25 19.356H9.25C9.05109 19.356 8.86032 19.2769 8.71967 19.1363C8.57902 18.9956 8.5 18.8049 8.5 18.606V17.856H16V18.606ZM16 16.356H8.5V8.10596C8.5 7.90704 8.57902 7.71628 8.71967 7.57563C8.86032 7.43497 9.05109 7.35596 9.25 7.35596H15.25C15.4489 7.35596 15.6397 7.43497 15.7803 7.57563C15.921 7.71628 16 7.90704 16 8.10596V16.356Z" fill="#1068B2"/>
</g>
<defs>
<clipPath id="clip0_398_389">
<rect width="25" height="25" fill="white" transform="translate(0 0.855957)"/>
</clipPath>
</defs>
</svg>
